<svg width="1200" height="630" viewBox="0 0 1200 630" xmlns="http://www.w3.org/2000/svg">
  <rect width="1200" height="630" fill="#05070d"/>
  <g transform="translate(460 200) scale(0.8284023668639053) translate(-3 -31)"><path d="M17 210 L17 118 A67 67 0 0 1 151 118 L151 162 A21 21 0 0 0 193 162 L193 118 A67 67 0 0 1 327 118 L327 210" fill="none" stroke="#ffffff" stroke-width="4" stroke-linecap="round" stroke-linejoin="round"/><path d="M24.666666666666668 210 L24.666666666666668 118 A59.33333333333333 59.33333333333333 0 0 1 143.33333333333334 118 L143.33333333333334 162 A28.666666666666668 28.666666666666668 0 0 0 200.66666666666666 162 L200.66666666666666 118 A59.33333333333333 59.33333333333333 0 0 1 319.3333333333333 118 L319.3333333333333 210" fill="none" stroke="#ffffff" stroke-width="4" stroke-linecap="round" stroke-linejoin="round"/><path d="M32.333333333333336 210 L32.333333333333336 118 A51.666666666666664 51.666666666666664 0 0 1 135.66666666666666 118 L135.66666666666666 162 A36.333333333333336 36.333333333333336 0 0 0 208.33333333333334 162 L208.33333333333334 118 A51.666666666666664 51.666666666666664 0 0 1 311.6666666666667 118 L311.6666666666667 210" fill="none" stroke="#ffffff" stroke-width="4" stroke-linecap="round" stroke-linejoin="round"/><path d="M40 210 L40 118 A44 44 0 0 1 128 118 L128 162 A44 44 0 0 0 216 162 L216 118 A44 44 0 0 1 304 118 L304 210" fill="none" stroke="#ffffff" stroke-width="4" stroke-linecap="round" stroke-linejoin="round"/><path d="M47.66666666666667 210 L47.66666666666667 118 A36.33333333333333 36.33333333333333 0 0 1 120.33333333333333 118 L120.33333333333333 162 A51.66666666666667 51.66666666666667 0 0 0 223.66666666666666 162 L223.66666666666666 118 A36.33333333333333 36.33333333333333 0 0 1 296.3333333333333 118 L296.3333333333333 210" fill="none" stroke="#ffffff" stroke-width="4" stroke-linecap="round" stroke-linejoin="round"/><path d="M55.333333333333336 210 L55.333333333333336 118 A28.666666666666664 28.666666666666664 0 0 1 112.66666666666666 118 L112.66666666666666 162 A59.333333333333336 59.333333333333336 0 0 0 231.33333333333334 162 L231.33333333333334 118 A28.666666666666664 28.666666666666664 0 0 1 288.6666666666667 118 L288.6666666666667 210" fill="none" stroke="#ffffff" stroke-width="4" stroke-linecap="round" stroke-linejoin="round"/><path d="M63 210 L63 118 A21 21 0 0 1 105 118 L105 162 A67 67 0 0 0 239 162 L239 118 A21 21 0 0 1 281 118 L281 210" fill="none" stroke="#ffffff" stroke-width="4" stroke-linecap="round" stroke-linejoin="round"/></g>
  <text x="600" y="490" text-anchor="middle" font-family="Georgia, 'Times New Roman', serif" font-size="84" fill="#ffffff" letter-spacing="2">La musica</text>
</svg>